<svg xmlns="http://www.w3.org/2000/svg" style="display:none">

    <symbol id="flecha-abajo" fill="none" viewBox="0 0 24 24">
        <path d="m6 9 6 6 6-6" stroke="currentColor" stroke-width="2.2" stroke-linecap="round" stroke-linejoin="round">
        </path>
    </symbol>

    <symbol id="tres-puntos" fill="currentColor" viewBox="0 0 24 24">
        <circle cx="17.5" cy="12" r="1.5"></circle>
        <circle cx="12" cy="12" r="1.5"></circle>
        <circle cx="6.5" cy="12" r="1.5"></circle>
    </symbol>
    <symbol id="home" viewBox="0 0 24 24" fill="none">
        <path d="M4 10.5 12 4l8 6.5V19a1 1 0 0 1-1 1h-4.5v-5.5h-5V20H5a1 1 0 0 1-1-1v-8.5Z" stroke="currentColor"
            stroke-width="1.8" stroke-linejoin="round"></path>
    </symbol>
    <symbol id="users" viewBox="0 0 24 24" fill="none">
        <path d="M9 11a3.5 3.5 0 1 0 0-7 3.5 3.5 0 0 0 0 7Zm8 1a2.5 2.5 0 1 0 0-5 2.5 2.5 0 0 0 0 5Z"
            stroke="currentColor" stroke-width="1.8" stroke-linecap="round" stroke-linejoin="round"></path>
        <path d="M3.5 19.5c.8-2.6 3.1-4 5.5-4s4.7 1.4 5.5 4M14.5 18.5c.55-1.66 2-2.82 3.75-3" stroke="currentColor"
            stroke-width="1.8" stroke-linecap="round"></path>
    </symbol>
    <symbol id="empleado" viewBox="0 0 24 24" fill="none">
        <path d="M12 11a3.5 3.5 0 1 0 0-7 3.5 3.5 0 0 0 0 7Z" stroke="currentColor" stroke-width="1.8"
            stroke-linecap="round" stroke-linejoin="round"></path>
        <path d="M5 20v-1c0-2.76 3.13-5 7-5s7 2.24 7 5v1" stroke="currentColor" stroke-width="1.8"
            stroke-linecap="round"></path>
        <path d="M18 5h3M19.5 3.5v3" stroke="currentColor" stroke-width="1.8" stroke-linecap="round"></path>
    </symbol>
    <symbol id="rol" fill="currentColor" viewBox="0 0 52 52">
        <path
            d="M38.3,27.2A11.4,11.4,0,1,0,49.7,38.6,11.46,11.46,0,0,0,38.3,27.2Zm2,12.4a2.39,2.39,0,0,1-.9-.2l-4.3,4.3a1.39,1.39,0,0,1-.9.4,1,1,0,0,1-.9-.4,1.39,1.39,0,0,1,0-1.9l4.3-4.3a2.92,2.92,0,0,1-.2-.9,3.47,3.47,0,0,1,3.4-3.8,2.39,2.39,0,0,1,.9.2c.2,0,.2.2.1.3l-2,1.9a.28.28,0,0,0,0,.5L41.1,37a.38.38,0,0,0,.6,0l1.9-1.9c.1-.1.4-.1.4.1a3.71,3.71,0,0,1,.2.9A3.57,3.57,0,0,1,40.3,39.6Z">
        </path>
        <circle cx="21.7" cy="14.9" r="12.9"></circle>
        <path
            d="M25.2,49.8c2.2,0,1-1.5,1-1.5h0a15.44,15.44,0,0,1-3.4-9.7,15,15,0,0,1,1.4-6.4.77.77,0,0,1,.2-.3c.7-1.4-.7-1.5-.7-1.5h0a12.1,12.1,0,0,0-1.9-.1A19.69,19.69,0,0,0,2.4,47.1c0,1,.3,2.8,3.4,2.8H24.9C25.1,49.8,25.1,49.8,25.2,49.8Z">
        </path>
    </symbol>
    <symbol id="membresia" viewBox="0 0 24 24" fill="none">
        <rect x="3" y="6" width="18" height="12" rx="2.5" stroke="currentColor" stroke-width="1.8"></rect>
        <path d="M7 12h4M14.5 10.5h2.5M14.5 13.5h2.5" stroke="currentColor" stroke-width="1.8" stroke-linecap="round">
        </path>
    </symbol>
    <symbol id="tipo-membresia" viewBox="0 0 24 24" fill="none">
        <path d="M7 4h9l4 4v12a1 1 0 0 1-1 1H7a2 2 0 0 1-2-2V6a2 2 0 0 1 2-2Z" stroke="currentColor" stroke-width="1.8"
            stroke-linejoin="round"></path>
        <path d="M16 4v4h4M9 12h6M9 16h6" stroke="currentColor" stroke-width="1.8" stroke-linecap="round"
            stroke-linejoin="round"></path>
    </symbol>
    <symbol id="search" fill="none" viewBox="0 0 24 24">
        <path stroke="currentColor" stroke-linecap="round" stroke-width="2"
            d="m21 21-3.5-3.5M17 10a7 7 0 1 1-14 0 7 7 0 0 1 14 0Z" />
    </symbol>
    <symbol id="edit" viewBox="0 0 24 24" fill="none">
        <path fill-rule="evenodd" clip-rule="evenodd"
            d="M21.1213 2.70705C19.9497 1.53548 18.0503 1.53547 16.8787 2.70705L15.1989 4.38685L7.29289 12.2928C7.16473 12.421 7.07382 12.5816 7.02986 12.7574L6.02986 16.7574C5.94466 17.0982 6.04451 17.4587 6.29289 17.707C6.54127 17.9554 6.90176 18.0553 7.24254 17.9701L11.2425 16.9701C11.4184 16.9261 11.5789 16.8352 11.7071 16.707L19.5556 8.85857L21.2929 7.12126C22.4645 5.94969 22.4645 4.05019 21.2929 2.87862L21.1213 2.70705ZM18.2929 4.12126C18.6834 3.73074 19.3166 3.73074 19.7071 4.12126L19.8787 4.29283C20.2692 4.68336 20.2692 5.31653 19.8787 5.70705L18.8622 6.72357L17.3068 5.10738L18.2929 4.12126ZM15.8923 6.52185L17.4477 8.13804L10.4888 15.097L8.37437 15.6256L8.90296 13.5112L15.8923 6.52185ZM4 7.99994C4 7.44766 4.44772 6.99994 5 6.99994H10C10.5523 6.99994 11 6.55223 11 5.99994C11 5.44766 10.5523 4.99994 10 4.99994H5C3.34315 4.99994 2 6.34309 2 7.99994V18.9999C2 20.6568 3.34315 21.9999 5 21.9999H16C17.6569 21.9999 19 20.6568 19 18.9999V13.9999C19 13.4477 18.5523 12.9999 18 12.9999C17.4477 12.9999 17 13.4477 17 13.9999V18.9999C17 19.5522 16.5523 19.9999 16 19.9999H5C4.44772 19.9999 4 19.5522 4 18.9999V7.99994Z"
            fill="currentColor"></path>
    </symbol>
    <symbol id="trash" viewBox="0 0 24 24" fill="none">
        <path
            d="M3 6.52381C3 6.12932 3.32671 5.80952 3.72973 5.80952H8.51787C8.52437 4.9683 8.61554 3.81504 9.45037 3.01668C10.1074 2.38839 11.0081 2 12 2C12.9919 2 13.8926 2.38839 14.5496 3.01668C15.3844 3.81504 15.4756 4.9683 15.4821 5.80952H20.2703C20.6733 5.80952 21 6.12932 21 6.52381C21 6.9183 20.6733 7.2381 20.2703 7.2381H3.72973C3.32671 7.2381 3 6.9183 3 6.52381Z"
            fill="currentColor"></path>
        <path fill-rule="evenodd" clip-rule="evenodd"
            d="M11.5956 22H12.4044C15.1871 22 16.5785 22 17.4831 21.1141C18.3878 20.2281 18.4803 18.7749 18.6654 15.8685L18.9321 11.6806C19.0326 10.1036 19.0828 9.31511 18.6289 8.81545C18.1751 8.31579 17.4087 8.31579 15.876 8.31579H8.12404C6.59127 8.31579 5.82488 8.31579 5.37105 8.81545C4.91722 9.31511 4.96744 10.1036 5.06788 11.6806L5.33459 15.8685C5.5197 18.7749 5.61225 20.2281 6.51689 21.1141C7.42153 22 8.81289 22 11.5956 22ZM10.2463 12.1885C10.2051 11.7546 9.83753 11.4381 9.42537 11.4815C9.01321 11.5249 8.71251 11.9117 8.75372 12.3456L9.25372 17.6087C9.29494 18.0426 9.66247 18.3591 10.0746 18.3157C10.4868 18.2724 10.7875 17.8855 10.7463 17.4516L10.2463 12.1885ZM14.5746 11.4815C14.9868 11.5249 15.2875 11.9117 15.2463 12.3456L14.7463 17.6087C14.7051 18.0426 14.3375 18.3591 13.9254 18.3157C13.5132 18.2724 13.2125 17.8855 13.2537 17.4516L13.7537 12.1885C13.7949 11.7546 14.1625 11.4381 14.5746 11.4815Z"
            fill="currentColor"></path>
    </symbol>
    <symbol id="cancel" viewBox="0 0 1024 1024" fill="#000000">
        <path
            d="M512 128C300.8 128 128 300.8 128 512s172.8 384 384 384 384-172.8 384-384S723.2 128 512 128z m0 85.333333c66.133333 0 128 23.466667 179.2 59.733334L273.066667 691.2C236.8 640 213.333333 578.133333 213.333333 512c0-164.266667 134.4-298.666667 298.666667-298.666667z m0 597.333334c-66.133333 0-128-23.466667-179.2-59.733334l418.133333-418.133333C787.2 384 810.666667 445.866667 810.666667 512c0 164.266667-134.4 298.666667-298.666667 298.666667z"
            fill="currentColor"></path>
    </symbol>
    <symbol id="info" fill="currentColor" viewBox="0 0 20 20">
        <path
            d="M10 .5a9.5 9.5 0 1 0 9.5 9.5A9.51 9.51 0 0 0 10 .5ZM9.5 4a1.5 1.5 0 1 1 0 3 1.5 1.5 0 0 1 0-3ZM12 15H8a1 1 0 0 1 0-2h1v-3H8a1 1 0 0 1 0-2h2a1 1 0 0 1 1 1v4h1a1 1 0 0 1 0 2Z" />
    </symbol>
    <symbol id="closed" fill="none" viewBox="0 0 14 14">
        <path stroke="currentColor" stroke-linecap="round" stroke-linejoin="round" stroke-width="2"
            d="m1 1 6 6m0 0 6 6M7 7l6-6M7 7l-6 6" />
    </symbol>
    <symbol id="add" viewBox="0 0 24 24" fill="none">
        <circle cx="12" cy="12" r="10" stroke="currentColor" stroke-width="1.5"></circle>
        <path d="M15 12L12 12M12 12L9 12M12 12L12 9M12 12L12 15" stroke="currentColor" stroke-width="1.5"
            stroke-linecap="round"></path>
    </symbol>
    <symbol id="return" fill="currentColor" viewBox="0 0 489.394 489.394">
        <path
            d="M375.789,92.867H166.864l17.507-42.795c3.724-9.132,1-19.574-6.691-25.744c-7.701-6.166-18.538-6.508-26.639-0.879 L9.574,121.71c-6.197,4.304-9.795,11.457-9.563,18.995c0.231,7.533,4.261,14.446,10.71,18.359l147.925,89.823 c8.417,5.108,19.18,4.093,26.481-2.499c7.312-6.591,9.427-17.312,5.219-26.202l-19.443-41.132h204.886 c15.119,0,27.418,12.536,27.418,27.654v149.852c0,15.118-12.299,27.19-27.418,27.19h-226.74c-20.226,0-36.623,16.396-36.623,36.622 v12.942c0,20.228,16.397,36.624,36.623,36.624h226.74c62.642,0,113.604-50.732,113.604-113.379V206.709 C489.395,144.062,438.431,92.867,375.789,92.867z">
        </path>
    </symbol>
    <symbol id="check" viewBox="0 0 24 24" fill="none">
        <path d="M4 12.6111L8.92308 17.5L20 6.5" stroke="currentColor" stroke-width="2" stroke-linecap="round"
            stroke-linejoin="round"></path>
    </symbol>
    <symbol id="active" viewBox="0 0 24 24" fill="none">
        <rect width="24" height="24" fill="none"></rect>
        <path fill-rule="evenodd" clip-rule="evenodd"
            d="M2 12C2 6.47715 6.47715 2 12 2C17.5228 2 22 6.47715 22 12C22 17.5228 17.5228 22 12 22C6.47715 22 2 17.5228 2 12ZM15.7071 9.29289C16.0976 9.68342 16.0976 10.3166 15.7071 10.7071L12.0243 14.3899C11.4586 14.9556 10.5414 14.9556 9.97568 14.3899L8.29289 12.7071C7.90237 12.3166 7.90237 11.6834 8.29289 11.2929C8.68342 10.9024 9.31658 10.9024 9.70711 11.2929L11 12.5858L14.2929 9.29289C14.6834 8.90237 15.3166 8.90237 15.7071 9.29289Z"
            fill="currentColor"></path>
    </symbol>
    <symbol id="warning" fill="currentColor" viewBox="0 0 1920 1920">
        <path
            d="M960 0c530.193 0 960 429.807 960 960s-429.807 960-960 960S0 1490.193 0 960 429.807 0 960 0Zm-9.838 1342.685c-84.47 0-153.19 68.721-153.19 153.19 0 84.47 68.72 153.192 153.19 153.192s153.19-68.721 153.19-153.191-68.72-153.19-153.19-153.19ZM1153.658 320H746.667l99.118 898.623h208.755L1153.658 320Z"
            fill-rule="evenodd"></path>
    </symbol>
    <symbol id="inactive" fill="currentColor" viewBox="0 0 24 24">
        <g id="inactive">
            <path
                d="M13.6,23.9c-7.8,1-14.5-5.6-13.5-13.5c0.7-5.3,5-9.7,10.3-10.3c7.8-1,14.5,5.6,13.5,13.5C23.2,18.9,18.9,23.2,13.6,23.9z M13.7,2.1C6.9,1,1,6.9,2.1,13.7c0.7,4.1,4,7.5,8.2,8.2C17.1,23,23,17.1,21.9,10.3C21.2,6.2,17.8,2.8,13.7,2.1z">
            </path>
            <polyline points="5.6,4.2 19.8,18.3 18.4,19.8 4.2,5.6"></polyline>
        </g>
    </symbol>
    <symbol id="sesion" viewBox="0 0 24 24" fill="none">
        <path d="M5 8h14M8 4v4M16 4v4M6 20h12a2 2 0 0 0 2-2V8a2 2 0 0 0-2-2H6a2 2 0 0 0-2 2v10a2 2 0 0 0 2 2Z"
            stroke="currentColor" stroke-width="1.8" stroke-linecap="round" stroke-linejoin="round"></path>
        <path d="M9 12h6M9 16h4" stroke="currentColor" stroke-width="1.8" stroke-linecap="round"></path>
    </symbol>
    <symbol id="sesion-programada" viewBox="0 0 24 24" fill="none">
        <path
            d="M7 3v3M17 3v3M4 9h16M12 13v3l2 1.5M6 21h12a2 2 0 0 0 2-2V8a2 2 0 0 0-2-2H6a2 2 0 0 0-2 2v11a2 2 0 0 0 2 2Z"
            stroke="currentColor" stroke-width="1.8" stroke-linecap="round" stroke-linejoin="round"></path>
    </symbol>
    <symbol id="user-add" viewBox="0 0 24 24" fill="none">
        <rect width="24" height="24" fill="none"></rect>
        <path fill-rule="evenodd" clip-rule="evenodd"
            d="M5 9.5C5 7.01472 7.01472 5 9.5 5C11.9853 5 14 7.01472 14 9.5C14 11.9853 11.9853 14 9.5 14C7.01472 14 5 11.9853 5 9.5Z"
            fill="currentColor"></path>
        <path fill-rule="evenodd" clip-rule="evenodd"
            d="M4.64115 15.6993C5.87351 15.1644 7.49045 15 9.49995 15C11.5112 15 13.1293 15.1647 14.3621 15.7008C15.705 16.2847 16.5212 17.2793 16.949 18.6836C17.1495 19.3418 16.6551 20 15.9738 20H3.02801C2.34589 20 1.85045 19.3408 2.05157 18.6814C2.47994 17.2769 3.29738 16.2826 4.64115 15.6993Z"
            fill="currentColor"></path>
        <path
            d="M19 3C19 2.44772 18.5523 2 18 2C17.4477 2 17 2.44772 17 3V5H15C14.4477 5 14 5.44772 14 6C14 6.55228 14.4477 7 15 7H17V9C17 9.55228 17.4477 10 18 10C18.5523 10 19 9.55228 19 9V7H21C21.5523 7 22 6.55228 22 6C22 5.44772 21.5523 5 21 5H19V3Z"
            fill="currentColor"></path>
    </symbol>
    <symbol id="membresia-card" viewBox="0 0 512 512" fill="#000000">
        <path style="fill:#BEC8D6;"
            d="M384.305,86.553H127.695c-25.72,0-46.763,21.043-46.763,46.763v320.232 c0,25.72,21.043,46.763,46.763,46.763h256.611c25.72,0,46.763-21.043,46.763-46.763V133.316 C431.068,107.597,410.025,86.553,384.305,86.553z">
        </path>
        <rect x="223.853" y="11.691" style="fill:#524E4D;" width="64.299" height="109.846"></rect>
        <rect x="171.829" y="191.681" style="fill:#FFFFFF;" width="168.346" height="168.346"></rect>
        <circle style="fill:#EE3840;" cx="256.002" cy="252.472" r="23.381"></circle>
        <path
            d="M384.305,74.863H299.84V11.691C299.84,5.235,294.605,0,288.149,0h-64.299c-6.456,0-11.691,5.235-11.691,11.691v63.172 h-84.465c-32.231,0-58.453,26.222-58.453,58.453v320.23c0,32.231,26.222,58.453,58.453,58.453h256.611 c32.231,0,58.453-26.222,58.453-58.453v-320.23C442.759,101.085,416.537,74.863,384.305,74.863z M235.541,23.381h40.917v86.459 h-40.917V23.381z M419.378,453.546c0,19.339-15.733,35.072-35.072,35.072H127.695c-19.339,0-35.072-15.733-35.072-35.072v-320.23 c0-19.339,15.733-35.072,35.072-35.072h84.465v11.596h-11.691c-6.456,0-11.691,5.235-11.691,11.691s5.235,11.691,11.691,11.691 h111.062c6.456,0,11.691-5.235,11.691-11.691s-5.235-11.691-11.691-11.691H299.84V98.244h84.465 c19.339,0,35.072,15.733,35.072,35.072V453.546z">
        </path>
        <path
            d="M256,59.623c6.769,0,12.275-5.506,12.275-12.275S262.769,35.072,256,35.072c-6.769,0-12.275,5.506-12.275,12.275 S249.231,59.623,256,59.623z">
        </path>
        <path
            d="M340.173,418.474H171.827c-6.456,0-11.691,5.235-11.691,11.691c0,6.456,5.235,11.691,11.691,11.691h168.346 c6.456,0,11.691-5.235,11.691-11.691C351.864,423.709,346.629,418.474,340.173,418.474z">
        </path>
        <path
            d="M206.899,313.258c0,6.456,5.235,11.691,11.691,11.691h74.82c6.456,0,11.691-5.235,11.691-11.691 c0-6.456-5.235-11.691-11.691-11.691h-74.82C212.133,301.567,206.899,306.803,206.899,313.258z">
        </path>
        <path
            d="M291.072,254.805c0-19.339-15.733-35.072-35.072-35.072s-35.072,15.733-35.072,35.072s15.733,35.072,35.072,35.072 S291.072,274.143,291.072,254.805z M244.309,254.805c0-6.446,5.244-11.691,11.691-11.691c6.446,0,11.691,5.244,11.691,11.691 c0,6.446-5.244,11.691-11.691,11.691C249.554,266.495,244.309,261.251,244.309,254.805z">
        </path>
        <path
            d="M340.173,179.984H171.827c-6.456,0-11.691,5.235-11.691,11.691v168.346c0,6.456,5.235,11.691,11.691,11.691h168.346 c6.456,0,11.691-5.235,11.691-11.691v-37.284c0-6.456-5.235-11.691-11.691-11.691c-6.456,0-11.691,5.235-11.691,11.691v25.593 H183.518V203.366h144.965v79.498c0,6.456,5.235,11.691,11.691,11.691c6.456,0,11.691-5.235,11.691-11.691v-91.189 C351.864,185.219,346.629,179.984,340.173,179.984z">
        </path>
    </symbol>
    <symbol id="cliente-card" viewBox="0 0 354.856 354.856" fill="#000000">
        <path style="fill:#71E4E4cc;"
            d="M307.943,199.173c16.571-15.084,26.979-36.832,26.979-61.008c0-45.55-36.925-82.474-82.474-82.474 c-33.914,0-63.045,20.476-75.713,49.737c15.541,17.534,24.992,40.582,24.992,65.8c0,21.149-6.804,41.654-19.089,58.524 c11.606,10.24,21.178,22.617,28.169,36.35h144.049C348.867,237.946,331.568,213.976,307.943,199.173z">
        </path>
        <path style="fill:#61B4E4;"
            d="M0,299.166h204.811c-5.986-28.155-23.285-52.126-46.912-66.929 c16.573-15.084,26.979-36.832,26.979-61.009c0-45.549-36.924-82.474-82.474-82.474c-45.545,0-82.471,36.925-82.471,82.474 c0,24.177,10.404,45.925,26.978,61.009C23.284,247.04,5.986,271.01,0,299.166z">
        </path>
    </symbol>
    <symbol id="sesion-card" viewBox="0 0 511.998 511.998" fill="#000000">
        <polygon style="fill:#57545C;" points="356.353,266.1 356.353,90.75 391.259,90.75 391.259,283.751 "></polygon>
        <polygon style="fill:#57545C;" points="71.605,212.337 71.605,141.846 105.468,141.846 105.468,205.987 ">
        </polygon>
        <path style="fill:#ACAAB1;"
            d="M327.785,448.018H110.66c-56.629,0-102.535-45.906-102.535-102.535v-43.527 c0-64.723,59.228-113.257,122.689-100.535l217.126,43.527c47.906,9.603,82.381,51.676,82.381,100.535l0,0 C430.321,402.112,384.413,448.018,327.785,448.018z">
        </path>
        <path style="fill:#DFDFE2;"
            d="M121.887,376.674c-21.704-7.456-37.301-28.048-37.301-52.282c0-30.523,24.744-55.268,55.268-55.268 s55.268,24.744,55.268,55.268c0,24.425-15.844,45.149-37.815,52.455L121.887,376.674z">
        </path>
        <path style="fill:#52A2E7;"
            d="M141.627,147.63H34.608c-5.676,0-10.277-4.601-10.277-10.277v-31.154 c0-9.108,8.312-15.953,17.251-14.205l98.625,19.275c6.795,1.328,11.698,7.282,11.698,14.205v11.878 C151.904,143.029,147.303,147.63,141.627,147.63z">
        </path>
        <rect x="40.542" y="448.013" style="fill:#3E3B43;" width="366.513" height="33.867"></rect>
        <path style="fill:#57545C;"
            d="M157.306,402.957H122.4v-75.917c0-8.462,6.859-15.321,15.321-15.321h4.265 c8.462,0,15.321,6.859,15.321,15.321v75.917H157.306z">
        </path>
        <path style="fill:#3E3B43;"
            d="M356.353,101.963c5.192,2.807,11.136,4.402,17.453,4.402s12.261-1.595,17.453-4.402V90.75h-34.906 v11.213H356.353z">
        </path>
        <rect x="40.542" y="481.883" style="fill:#3E3B43;" width="44.048" height="22.519"></rect>
        <rect x="362.999" y="481.883" style="fill:#3E3B43;" width="44.048" height="22.519"></rect>
        <rect x="71.607" y="147.629" style="fill:#3E3B43;" width="33.863" height="14.352"></rect>
        <path style="fill:#77757E;"
            d="M368.751,53.194l122.087-42.887c2.867-1.007,5.995,0.575,6.883,3.48l4.656,15.224 c0.835,2.732-0.625,5.638-3.315,6.598L390.35,74.399L368.751,53.194z">
        </path>
        <circle style="fill:#57545C;" cx="373.803" cy="69.612" r="27.41"></circle>
        <rect x="103.29" y="392.829" style="fill:#3E3B43;" width="72.306" height="28.513"></rect>
        <rect x="122.396" y="383.554" style="fill:#1D1D20;" width="34.906" height="9.274"></rect>
        <g style="opacity:0.28;">
            <path style="fill:#3E3B43;"
                d="M8.125,323.702v21.781c0,56.629,45.906,102.535,102.535,102.535h217.126 c56.629,0,102.535-45.907,102.535-102.535l0,0c0-7.449-0.811-14.738-2.339-21.78H8.125V323.702z">
            </path>
        </g>
        <path
            d="M139.854,261.53c-34.662,0-62.862,28.2-62.862,62.862c0,25.187,15.006,47.775,37.815,57.673v3.172h-11.521 c-4.194,0-7.594,3.4-7.594,7.594v28.509c0,4.194,3.4,7.594,7.594,7.594h72.305c4.194,0,7.594-3.4,7.594-7.594v-28.509 c0-4.194-3.4-7.594-7.594-7.594H164.9v-3.177c22.828-9.893,37.815-32.41,37.815-57.667 C202.715,289.73,174.515,261.53,139.854,261.53z M167.996,400.425v13.321h-57.117v-13.321h11.521h34.906H167.996z M129.995,385.237 v-58.197c0-4.261,3.466-7.727,7.727-7.727h4.264c4.261,0,7.727,3.466,7.727,7.727v49.936c0,0.009,0,0.018,0,0.026v8.235 L129.995,385.237L129.995,385.237z M164.9,364.978v-37.938c0-12.636-10.279-22.915-22.915-22.915h-4.264 c-12.636,0-22.915,10.279-22.915,22.915v37.926c-13.849-8.552-22.626-23.799-22.626-40.573c0-26.288,21.386-47.674,47.674-47.674 s47.674,21.386,47.674,47.674C187.527,341.217,178.761,356.438,164.9,364.978z">
        </path>
        <path
            d="M511.133,30.805l-7.777-25.432c-0.588-1.926-1.919-3.539-3.697-4.485c-1.777-0.945-3.858-1.145-5.786-0.557L380.706,34.938 c-0.225,0.069-0.443,0.15-0.655,0.237c-2.028-0.367-4.112-0.569-6.244-0.569c-19.3,0-35.001,15.702-35.001,35.001 c0,9.49,3.801,18.103,9.954,24.415v143.345l-216.452-43.391c-6.404-1.284-12.84-1.983-19.245-2.13v-36.621h38.842 c4.194,0,7.594-3.4,7.594-7.594v-22.156c0-10.53-7.501-19.638-17.835-21.658L43.039,84.541c-6.497-1.272-13.152,0.415-18.261,4.622 s-8.04,10.417-8.04,17.036v41.431c0,4.194,3.4,7.594,7.594,7.594h39.68v46.942c-8.197,3.844-15.977,8.727-23.153,14.607 c-25.629,21-40.328,52.049-40.328,85.183v43.527c0,40.396,21.867,75.775,54.381,94.941H40.538c-4.194,0-7.594,3.4-7.594,7.594 v33.866v22.52c0,4.194,3.4,7.594,7.594,7.594h44.048c4.194,0,7.594-3.4,7.594-7.594v-14.926h263.228v14.926 c0,4.194,3.399,7.594,7.594,7.594h44.048c4.195,0,7.594-3.4,7.594-7.594v-22.52v-33.866c0-4.194-3.399-7.594-7.594-7.594h-23.517 c32.514-19.166,54.382-54.545,54.382-94.941c0-33.186-15.003-63.587-39.061-84.009V94.021c6.058-6.214,9.828-14.662,9.942-23.978 l97.296-29.754C510.103,39.062,512.361,34.816,511.133,30.805z M373.806,49.795c10.924,0,19.813,8.888,19.813,19.813 S384.73,89.42,373.806,89.42s-19.813-8.888-19.813-19.813S362.882,49.795,373.806,49.795z M383.665,103.185v147.462 c-6.194-3.666-12.784-6.758-19.718-9.174V103.185c3.129,0.92,6.436,1.423,9.858,1.423 C377.229,104.609,380.535,104.106,383.665,103.185z M31.926,140.036V106.2c0-2.826,1.57-4.54,2.507-5.312 c0.936-0.772,2.92-1.985,5.693-1.441l98.625,19.275c3.222,0.63,5.56,3.469,5.56,6.752v14.562H31.926V140.036z M97.873,155.225 v37.322c-6.332,0.734-12.579,2.019-18.674,3.838v-41.159H97.873z M76.992,496.811h-28.86v-7.332h28.86V496.811z M399.456,496.811 h-28.86v-7.332h28.86V496.811z M399.456,455.612v18.678h-36.454H84.586H48.132v-18.678h62.528h217.126L399.456,455.612 L399.456,455.612z M422.726,345.483c0,52.351-42.591,94.941-94.942,94.941H110.66c-52.351,0-94.941-42.591-94.941-94.941v-43.527 c0-28.564,12.672-55.331,34.766-73.435c17.161-14.062,38.328-21.524,60.049-21.524c6.243,0,12.533,0.617,18.787,1.87l217.125,43.526 C390.647,261.254,422.726,300.404,422.726,345.483z M405.655,55.12c-1.677-3.672-3.968-7.004-6.745-9.866l92.142-28.178 l3.335,10.908L405.655,55.12z">
        </path>
    </symbol>
    <symbol id="report-card" viewBox="0 0 24 24" fill="none">
        <path d="M5 4h14a2 2 0 0 1 2 2v12.5a1.5 1.5 0 0 1-1.5 1.5H4.5A1.5 1.5 0 0 1 3 18.5V6a2 2 0 0 1 2-2Z"
            stroke="currentColor" stroke-width="1.8" stroke-linejoin="round"></path>
        <path d="M8 15V11M12 15V8M16 15v-5" stroke="currentColor" stroke-width="1.8" stroke-linecap="round"></path>
    </symbol>
    <symbol id="membresia-card-top" viewBox="0 0 512 512" fill="#000000">
        <path style="fill:#F4DA84;"
            d="M503.916,158.989V353.01c0,23.812-19.304,43.116-43.116,43.116h-97.011 c-23.812,0-43.116-19.304-43.116-43.116c0,23.812-19.304,43.116-43.116,43.116H51.2c-23.812,0-43.116-19.304-43.116-43.116V158.989 c0-23.812,19.304-43.116,43.116-43.116h226.358c23.812,0,43.116,19.304,43.116,43.116c0-23.812,19.304-43.116,43.116-43.116H460.8 C484.612,115.874,503.916,135.178,503.916,158.989z">
        </path>
        <path style="fill:#FFEE92;"
            d="M503.916,158.989V353.01c0,23.812-19.304,43.116-43.116,43.116h-97.011 c-23.812,0-43.116-19.304-43.116-43.116V158.989c0-23.812,19.304-43.116,43.116-43.116H460.8 C484.612,115.874,503.916,135.178,503.916,158.989z">
        </path>
        <path style="fill:#FF8D40;"
            d="M503.916,158.989v32.337H8.084v-32.337c0-23.812,19.304-43.116,43.116-43.116h226.358 c23.812,0,43.116,19.304,43.116,43.116c0-23.812,19.304-43.116,43.116-43.116H460.8 C484.612,115.874,503.916,135.178,503.916,158.989z">
        </path>
        <path style="fill:#FFA669;"
            d="M503.916,158.989v32.337H320.674v-32.337c0-23.812,19.304-43.116,43.116-43.116H460.8 C484.612,115.874,503.916,135.178,503.916,158.989z">
        </path>
        <path
            d="M328.758,245.221V256c0,4.466-3.618,8.084-8.084,8.084s-8.084-3.618-8.084-8.084v-10.779c0-4.466,3.618-8.084,8.084-8.084 S328.758,240.755,328.758,245.221z M212.884,301.811H51.2c-4.466,0-8.084,3.618-8.084,8.084s3.618,8.084,8.084,8.084h161.684 c4.466,0,8.084-3.618,8.084-8.084S217.35,301.811,212.884,301.811z M320.674,280.253c-4.466,0-8.084,3.618-8.084,8.084v10.779 c0,4.466,3.618,8.084,8.084,8.084s8.084-3.618,8.084-8.084v-10.779C328.758,283.871,325.139,280.253,320.674,280.253z M158.989,334.147H51.2c-4.466,0-8.084,3.618-8.084,8.084s3.618,8.084,8.084,8.084h107.789c4.466,0,8.084-3.618,8.084-8.084 S163.455,334.147,158.989,334.147z M512,158.989V353.01c0,28.231-22.969,51.2-51.2,51.2h-97.011 c-18.081,0-34.003-9.422-43.116-23.612c-9.113,14.19-25.035,23.612-43.116,23.612H51.2c-28.231,0-51.2-22.969-51.2-51.2V158.989 c0-28.231,22.969-51.2,51.2-51.2h226.358c18.081,0,34.003,9.422,43.116,23.612c9.113-14.19,25.035-23.612,43.116-23.612H460.8 C489.031,107.789,512,130.758,512,158.989z M495.832,158.989c0-19.317-15.715-35.032-35.032-35.032h-97.011 c-19.317,0-35.032,15.715-35.032,35.032v24.253h142.821c4.466,0,8.084,3.618,8.084,8.084s-3.618,8.084-8.084,8.084H328.758v13.474 c0,4.466-3.618,8.084-8.084,8.084s-8.084-3.618-8.084-8.084v-53.895c0-19.317-15.715-35.032-35.032-35.032H51.2 c-19.317,0-35.032,15.715-35.032,35.032v24.253h272.168c4.466,0,8.084,3.618,8.084,8.084s-3.618,8.084-8.084,8.084H16.168v153.6 c0,19.317,15.715,35.032,35.032,35.032h226.358c19.317,0,35.032-15.715,35.032-35.032v-21.558c0-4.466,3.618-8.084,8.084-8.084 s8.084,3.618,8.084,8.084v21.558c0,19.317,15.715,35.032,35.032,35.032H460.8c19.317,0,35.032-15.715,35.032-35.032V158.989z M406.905,150.905h-43.116c-4.466,0-8.084,3.618-8.084,8.084c0,4.466,3.618,8.084,8.084,8.084h43.116 c4.466,0,8.084-3.618,8.084-8.084C414.989,154.524,411.371,150.905,406.905,150.905z M158.989,150.905H51.2 c-4.466,0-8.084,3.618-8.084,8.084c0,4.466,3.618,8.084,8.084,8.084h107.789c4.466,0,8.084-3.618,8.084-8.084 C167.074,154.524,163.455,150.905,158.989,150.905z M463.495,312.589c-4.466,0-8.084,3.618-8.084,8.084v21.558 c0,4.466,3.618,8.084,8.084,8.084s8.084-3.618,8.084-8.084v-21.558C471.579,316.208,467.96,312.589,463.495,312.589z M441.937,312.589c-4.466,0-8.084,3.618-8.084,8.084v21.558c0,4.466,3.618,8.084,8.084,8.084s8.084-3.618,8.084-8.084v-21.558 C450.021,316.208,446.403,312.589,441.937,312.589z M361.095,312.589c-4.466,0-8.084,3.618-8.084,8.084v21.558 c0,4.466,3.618,8.084,8.084,8.084s8.084-3.618,8.084-8.084v-21.558C369.179,316.208,365.56,312.589,361.095,312.589z M388.042,312.589c-4.466,0-8.084,3.618-8.084,8.084v21.558c0,4.466,3.618,8.084,8.084,8.084s8.084-3.618,8.084-8.084v-21.558 C396.126,316.208,392.508,312.589,388.042,312.589z M409.6,312.589c-4.466,0-8.084,3.618-8.084,8.084v21.558 c0,4.466,3.618,8.084,8.084,8.084s8.084-3.618,8.084-8.084v-21.558C417.684,316.208,414.066,312.589,409.6,312.589z">
        </path>
    </symbol>
    <symbol id="cliente-card-top" viewBox="0 -4.19 48 48" fill="#000000">
        <g transform="translate(-385 -155.852)">
            <g>
                <path
                    d="M414,164.466v-3.379a5.005,5.005,0,1,0-10,0v3.379H385v31h48v-31Zm-3,17h6v2h-6Zm-5-20.379a3,3,0,1,1,6,0v3.379h-6Zm-8.112,11.627a4.151,4.151,0,1,1-4.152,4.151A4.163,4.163,0,0,1,397.888,172.714ZM406,188.466H389v-1.222c0-2.8,5.7-4.152,8.5-4.152s8.5,1.349,8.5,4.152Zm14,0h-9v-2h9Zm6-5h-7v-2h7Zm2-6H411v-2h17Z"
                    fill="#59bdff" fill-rule="evenodd"></path>
                <path d="M409,160.466a1,1,0,0,0-1,1v1a1,1,0,0,0,2,0v-1A1,1,0,0,0,409,160.466Z" fill="#59bdff"
                    fill-rule="evenodd"></path>
            </g>
        </g>
    </symbol>
    <symbol id="sesion-card-top" viewBox="0 0 1024 1024" fill="#000000">
        <path
            d="M879.202137 168.133233H710.502696v-47.010671c0-13.80095-11.19721-25.002256-25.002256-25.002255-13.80095 0-25.002256 11.201305-25.002256 25.002255v47.010671H357.093318v-47.010671c0-13.80095-11.201305-25.002256-25.002256-25.002255-13.804022 0-25.002256 11.201305-25.002256 25.002255v47.010671H143.731998c-12.957269 0-23.437759 10.547043-23.437759 23.505335v712.811558c0 12.954197 10.48049 23.438783 23.437759 23.438782h735.470139c12.957269 0 23.505335-10.484586 23.505336-23.438782V191.638568c-0.001024-12.957269-10.548067-23.505335-23.505336-23.505335z"
            fill="#27323A"></path>
        <path
            d="M848.925848 874.238341h-129.111939c42.646872-13.150783 87.052778-31.512119 129.112963-56.904474v56.904474z"
            fill="#F4CE73"></path>
        <path
            d="M594.544611 867.078311c57.167613-32.165357 120.648503-77.025869 157.044555-113.681987 17.904683 16.081143 44.859488 30.535332 69.925224 40.433231-77.282864 43.882701-162.512103 64.394196-226.969779 73.248756z"
            fill="#FFFFFF"></path>
        <path
            d="M848.925848 769.2174c-25.979042-8.853536-75.655911-32.292319-82.949045-46.549923a16.484554 16.484554 0 0 0-12.827236-8.987665c-5.5341-0.650167-11.000624 1.49692-14.647703 5.664133-54.040667 62.830723-208.544963 153.464028-243.180956 154.894396H171.923657V465.028237h677.003215V769.2174z"
            fill="#F4CE73"></path>
        <path
            d="M848.925848 431.692578H171.923657V219.763674h135.166173v29.558546c-24.415569 9.897899-41.736637 33.792311-41.736638 61.724927 0 36.786152 29.885165 66.671317 66.671317 66.671317 36.722671 0 66.671317-29.885165 66.671317-66.671317 0-27.865039-17.251444-51.760475-41.603532-61.657351v-29.625098h303.40589v30.471852c-23.308749 10.417009-39.586478 33.725759-39.586478 60.810597 0 36.786152 29.885165 66.671317 66.671317 66.671317 36.722671 0 66.671317-29.885165 66.671317-66.671317 0-28.711792-18.358264-52.997328-43.752668-62.37407v-28.908379h138.423152v211.92788z"
            fill="#79CCBF"></path>
        <path
            d="M476.112819 686.07484c-13.280817 31.382085-23.048683 70.188363-29.234997 116.478218h78.719375c2.60374-33.205625 7.55013-62.047451 15.037804-86.46302 9.440223-31.448638 22.268482-59.834834 38.546211-85.422753 13.347369-21.095109 30.145232-40.693298 50.133521-58.664533v-53.257395H398.893436V585.28664h140.373654c-28.778345 35.872846-49.873454 69.406115-63.154271 100.7882z"
            fill="#27323A"></path>
    </symbol>

    <symbol id="cash" xmlns="http://www.w3.org/2000/svg" xmlns:xlink="http://www.w3.org/1999/xlink" viewBox="0 0 64 64"
        enable-background="new 0 0 64 64" xml:space="preserve" fill="#000000">
        <g id="SVGRepo_bgCarrier" stroke-width="0"></g>
        <g id="SVGRepo_tracerCarrier" stroke-linecap="round" stroke-linejoin="round"></g>
        <g id="SVGRepo_iconCarrier">
            <g>
                <path fill="currentColor"
                    d="M0,32v20c0,2.211,1.789,4,4,4h56c2.211,0,4-1.789,4-4V32H0z M24,44h-8c-2.211,0-4-1.789-4-4s1.789-4,4-4h8 c2.211,0,4,1.789,4,4S26.211,44,24,44z">
                </path>
                <path fill="currentColor" d="M64,24V12c0-2.211-1.789-4-4-4H4c-2.211,0-4,1.789-4,4v12H64z"></path>
            </g>
        </g>
    </symbol>

    <symbol id="closed" fill="currentColor" viewBox="0 0 24 24" xmlns="http://www.w3.org/2000/svg">
        <g id="SVGRepo_bgCarrier" stroke-width="0"></g>
        <g id="SVGRepo_tracerCarrier" stroke-linecap="round" stroke-linejoin="round"></g>
        <g id="SVGRepo_iconCarrier">
            <path
                d="M13.414 12l4.95-4.95a1 1 0 0 0-1.414-1.414L12 10.586l-4.95-4.95A1 1 0 0 0 5.636 7.05l4.95 4.95-4.95 4.95a1 1 0 0 0 1.414 1.414l4.95-4.95 4.95 4.95a1 1 0 0 0 1.414-1.414z">
            </path>
        </g>
    </symbol>
    <symbol id="refresh" viewBox="0 0 24 24" fill="none" xmlns="http://www.w3.org/2000/svg">

        <g id="SVGRepo_iconCarrier">
            <path
                d="M4.06189 13C4.02104 12.6724 4 12.3387 4 12C4 7.58172 7.58172 4 12 4C14.5006 4 16.7332 5.14727 18.2002 6.94416M19.9381 11C19.979 11.3276 20 11.6613 20 12C20 16.4183 16.4183 20 12 20C9.61061 20 7.46589 18.9525 6 17.2916M9 17H6V17.2916M18.2002 4V6.94416M18.2002 6.94416V6.99993L15.2002 7M6 20V17.2916"
                stroke="currentColor" stroke-width="2" stroke-linecap="round" stroke-linejoin="round"></path>
        </g>
    </symbol>
</svg>